<?xml version="1.0" encoding="UTF-8"?>
<svg id="" data-name="" xmlns="http://www.w3.org/2000/svg" viewBox="0 0 244.04 162.7">


    <g>
      <path class="cls-1" d="M166.76,0v78.3h62.92c7.93,0,14.36-6.43,14.36-14.36V0h-77.28ZM202.35,63.3V15h6.1v43.42c0,2.7-2.19,4.88-4.88,4.88h-1.22Z"/>
      <path class="cls-1" d="M244.04,84.4v63.94c0,7.93-6.43,14.36-14.36,14.36h-62.92v-78.3h21.69v63.3h1.22c2.7,0,4.88-2.19,4.88-4.88v-58.42h21.7v63.3h1.22c2.7,0,4.88-2.19,4.88-4.88v-58.42h21.69Z"/>
      <path class="cls-1" d="M83.38,99.4v-63.3h-1.22c-2.7,0-4.88,2.19-4.88,4.88v85.62h1.22c2.7,0,4.88-2.19,4.88-4.88v-16.22h77.28v36.32c0,11.53-9.35,20.88-20.88,20.88H0V20.88C0,9.35,9.35,0,20.88,0h139.79v99.4h-77.28Z"/>
    </g>

</svg>